<svg xmlns="http://www.w3.org/2000/svg" xmlns:xlink="http://www.w3.org/1999/xlink" width="469" zoomAndPan="magnify" viewBox="0 0 351.75 191.999996" height="256" preserveAspectRatio="xMidYMid meet" version="1.2"><defs><clipPath id="8ba7287bca"><path d="M 0 0.0664062 L 351.5 0.0664062 L 351.5 191.929688 L 0 191.929688 Z M 0 0.0664062 "/></clipPath></defs><g id="a6d42dd254"><g clip-rule="nonzero" clip-path="url(#8ba7287bca)"><path style=" stroke:none;fill-rule:nonzero;fill:#ffffff;fill-opacity:1;" d="M 0 0.0664062 L 351.5 0.0664062 L 351.5 191.933594 L 0 191.933594 Z M 0 0.0664062 "/></g><path style=" stroke:none;fill-rule:nonzero;fill:#1c398e;fill-opacity:1;" d="M 150.078125 7.425781 C 147.226562 7.90625 144.261719 8.894531 141.6875 10.183594 C 139.363281 11.355469 135.59375 12.527344 130.949219 13.515625 C 124.515625 14.875 122.628906 15.585938 120.308594 17.492188 C 118.582031 18.917969 117.730469 19.863281 116.214844 22.113281 C 114.582031 24.503906 114.789062 24.136719 113.640625 26.851562 C 111.5 31.886719 111.179688 32.460938 109.617188 33.976562 L 108.144531 35.449219 L 108.285156 38.804688 L 108.421875 42.160156 L 109.59375 42.023438 C 111.109375 41.816406 113.089844 40.921875 114.078125 40 C 114.492188 39.585938 115.316406 38.550781 115.871094 37.703125 C 116.445312 36.828125 117.109375 36.046875 117.386719 35.929688 C 117.871094 35.746094 134.46875 31.65625 137.960938 30.851562 C 138.882812 30.644531 139.664062 30.550781 139.734375 30.644531 C 139.800781 30.734375 139.6875 31.703125 139.527344 32.734375 C 139.34375 33.792969 139.15625 35.125 139.113281 35.703125 C 139.042969 36.621094 139.089844 36.734375 139.503906 36.691406 C 141.800781 36.4375 148.722656 36.117188 152.835938 36.09375 L 157.894531 36.046875 L 160.996094 37.011719 C 162.699219 37.539062 166.332031 38.644531 169.042969 39.472656 C 171.757812 40.277344 174.976562 41.242188 176.171875 41.609375 L 178.355469 42.277344 L 178.421875 45.035156 L 178.492188 47.792969 L 177.617188 47.839844 C 177.136719 47.863281 173.894531 47.910156 170.421875 47.933594 L 164.101562 48 L 162.605469 48.898438 C 161.78125 49.402344 159.296875 51.011719 157.089844 52.484375 C 150.515625 56.875 151.824219 56.414062 144.835938 56.738281 C 141.527344 56.898438 136.859375 57.105469 134.445312 57.195312 C 132.054688 57.265625 128.375 57.425781 126.285156 57.5625 C 124.191406 57.679688 119.546875 57.933594 115.960938 58.09375 L 109.433594 58.414062 L 108.238281 59.609375 L 108.121094 67.175781 L 108.007812 74.714844 L 106.835938 76.644531 C 106.191406 77.703125 105.523438 78.96875 105.363281 79.472656 C 104.742188 81.359375 105.523438 83.933594 106.972656 84.785156 C 107.777344 85.242188 108.054688 85.242188 137.960938 85.242188 L 168.125 85.242188 L 168.195312 78.117188 C 168.261719 71.519531 168.308594 70.851562 168.792969 69.035156 C 170.078125 64.347656 172.953125 60.738281 175.988281 60.09375 C 177.617188 59.726562 180.125 59.976562 181.757812 60.667969 C 182.539062 60.988281 183.414062 61.3125 183.710938 61.378906 L 184.21875 61.496094 L 184.21875 41.171875 C 184.21875 25.679688 184.285156 20.78125 184.492188 20.574219 C 184.859375 20.207031 187.136719 20.207031 187.367188 20.574219 C 187.457031 20.734375 187.550781 25.585938 187.574219 31.355469 C 187.597656 37.125 187.6875 41.976562 187.757812 42.117188 C 187.847656 42.253906 188.539062 42.367188 189.320312 42.367188 L 190.699219 42.367188 L 190.5625 43.105469 C 190.46875 43.519531 190.425781 44.023438 190.425781 44.207031 C 190.445312 44.390625 190.492188 48.964844 190.539062 54.367188 C 190.609375 64.988281 190.632812 64.691406 189.390625 64.945312 C 188.835938 65.058594 188.835938 65.265625 189.574219 67.3125 C 190.632812 70.253906 191.34375 74.738281 191.34375 78.460938 C 191.34375 82.347656 190.378906 89.3125 189.710938 90.09375 C 189.527344 90.324219 189.664062 90.4375 190.238281 90.601562 C 191.230469 90.851562 195.089844 90.738281 195.6875 90.417969 C 196.539062 89.980469 196.632812 88.808594 196.632812 78.414062 C 196.632812 72.898438 196.722656 68.324219 196.839844 68.253906 C 196.953125 68.183594 198.675781 68.578125 200.675781 69.128906 C 204.378906 70.140625 209.253906 71.402344 216.171875 73.175781 C 218.265625 73.703125 220.425781 74.277344 221 74.4375 C 221.574219 74.621094 224.265625 75.335938 226.976562 76.023438 C 229.691406 76.738281 234.105469 77.863281 236.746094 78.554688 C 239.414062 79.242188 241.964844 79.863281 242.449219 79.957031 C 242.910156 80.046875 243.367188 80.207031 243.4375 80.324219 C 243.507812 80.4375 243.714844 80.53125 243.921875 80.53125 C 244.242188 80.53125 244.242188 80.484375 243.898438 80.117188 C 243.691406 79.863281 243.484375 79.289062 243.414062 78.785156 C 243.070312 75.886719 241.367188 66.714844 241.046875 66.046875 C 240.839844 65.585938 237.597656 62.117188 233.644531 58.117188 C 226.929688 51.3125 217.917969 42.09375 217.4375 41.539062 C 217.207031 41.265625 211.644531 35.585938 201.804688 25.585938 C 196.699219 20.390625 196.21875 19.839844 195.734375 18.527344 C 195.4375 17.746094 195.042969 17.035156 194.839844 16.964844 C 194.171875 16.710938 190.5625 16.597656 181.574219 16.527344 C 171.847656 16.484375 170.5625 16.390625 168.238281 15.679688 C 165.160156 14.734375 163.25 13.5625 160.285156 10.734375 C 156.148438 6.828125 155.273438 6.550781 150.078125 7.425781 Z M 152.03125 76.414062 C 152.03125 78.140625 152.007812 78.253906 151.59375 78.117188 C 151.34375 78.046875 151.089844 78.09375 151.019531 78.207031 C 150.929688 78.324219 150.101562 78.4375 149.160156 78.4375 C 148.214844 78.4375 147.320312 78.507812 147.203125 78.578125 C 147.066406 78.644531 146.835938 78.644531 146.699219 78.53125 C 146.539062 78.4375 146.191406 78.371094 145.941406 78.347656 C 145.527344 78.347656 145.480469 78.1875 145.480469 76.738281 C 145.480469 75.839844 145.527344 74.992188 145.570312 74.828125 C 145.617188 74.621094 146.492188 74.554688 148.835938 74.554688 L 152.03125 74.554688 Z M 117.316406 76.621094 L 117.316406 78.4375 L 116.582031 78.578125 C 116.167969 78.644531 114.742188 78.691406 113.410156 78.644531 L 110.996094 78.578125 L 110.925781 77.195312 C 110.789062 74.667969 110.652344 74.785156 114.214844 74.785156 L 117.316406 74.785156 Z M 117.316406 76.621094 "/><path style=" stroke:none;fill-rule:nonzero;fill:#1c398e;fill-opacity:1;" d="M 178.355469 64.140625 C 176.722656 64.988281 175.390625 66.714844 174.332031 69.359375 C 173.480469 71.542969 173.226562 72.578125 172.929688 75.496094 C 172.628906 78.394531 173 82.578125 173.757812 85.199219 C 174.054688 86.230469 174.238281 87.128906 174.195312 87.175781 C 174.148438 87.242188 159.066406 87.3125 140.699219 87.359375 C 122.351562 87.40625 107.203125 87.472656 107.042969 87.519531 C 106.859375 87.613281 106.835938 87.839844 106.949219 88.300781 C 107.480469 90.140625 108.71875 91.65625 110.304688 92.394531 C 111.386719 92.898438 111.730469 92.945312 115.753906 92.945312 L 120.03125 92.945312 L 121.15625 94.601562 C 122.121094 96.070312 122.445312 96.371094 123.847656 97.082031 L 125.433594 97.886719 L 133.363281 97.886719 L 135.503906 96.808594 C 136.699219 96.210938 138.746094 95.082031 140.078125 94.324219 L 142.492188 92.945312 L 159.824219 92.945312 L 160.445312 93.820312 C 163.226562 97.589844 164.398438 98.003906 172.378906 98.003906 C 179.871094 98.003906 181.390625 97.613281 183.894531 95.082031 C 185.160156 93.796875 186.746094 90.601562 187.414062 88.046875 C 188.769531 82.851562 188.652344 74.898438 187.183594 70.761719 C 186.171875 67.863281 184.054688 65.035156 182.21875 64.117188 C 181.273438 63.65625 179.25 63.65625 178.355469 64.140625 Z M 182.515625 71.402344 C 183.207031 71.792969 184.148438 72.988281 184.539062 73.910156 C 185.457031 76.117188 185.574219 81.21875 184.769531 83.589844 C 184.285156 85.011719 182.90625 86.507812 182.078125 86.507812 L 181.457031 86.507812 L 181.457031 78.804688 C 181.457031 70.644531 181.433594 70.785156 182.515625 71.402344 Z M 182.515625 71.402344 "/><path style=" stroke:none;fill-rule:nonzero;fill:#1c398e;fill-opacity:1;" d="M 203.414062 72.898438 C 202.078125 73.175781 200.722656 75.152344 200.101562 77.65625 C 199.871094 78.578125 199.390625 82.507812 199.390625 83.40625 C 199.390625 84.484375 199.894531 88.1875 200.285156 89.933594 C 200.5625 91.105469 200.722656 92.140625 200.675781 92.210938 C 200.5625 92.300781 192.054688 92.691406 189.320312 92.714844 C 188.148438 92.714844 188.101562 92.738281 188.238281 93.222656 C 188.5625 94.300781 190.171875 96.300781 191.230469 96.96875 C 192.332031 97.632812 192.378906 97.65625 196.378906 97.773438 C 202.5625 97.957031 204.125 97.632812 205.734375 95.886719 C 206.699219 94.828125 207.183594 94.027344 207.6875 92.53125 C 208.792969 89.359375 209.136719 83.425781 208.46875 79.632812 C 207.734375 75.425781 205.503906 72.460938 203.414062 72.898438 Z M 203.414062 72.898438 "/><path style=" stroke:none;fill-rule:nonzero;fill:#1c398e;fill-opacity:1;" d="M 210.976562 75.632812 C 211.804688 77.265625 212.285156 79.910156 212.425781 83.632812 C 212.492188 85.65625 212.65625 87.496094 212.769531 87.703125 C 212.953125 88.09375 213.527344 88.117188 219.734375 88.117188 C 226.449219 88.117188 226.496094 88.117188 226.839844 87.613281 C 227.09375 87.265625 227.207031 86.578125 227.207031 85.632812 C 227.207031 84.070312 227.667969 82.667969 228.242188 82.460938 C 228.632812 82.300781 232.976562 82.785156 237.898438 83.519531 C 240.125 83.863281 241.230469 84.117188 241.507812 84.394531 C 241.757812 84.644531 241.988281 85.472656 242.128906 86.738281 C 242.3125 88.09375 242.496094 88.785156 242.769531 88.992188 C 243.183594 89.289062 243.988281 89.152344 244.265625 88.714844 C 244.496094 88.371094 244.496094 83.472656 244.265625 83.105469 C 244.148438 82.945312 242.816406 82.554688 241.253906 82.253906 C 239.714844 81.933594 238.171875 81.542969 237.828125 81.402344 C 237.484375 81.265625 237.117188 81.175781 237 81.199219 C 236.746094 81.242188 230.125 79.679688 223.988281 78.117188 C 217.503906 76.460938 212.839844 75.335938 211.621094 75.128906 L 210.609375 74.96875 Z M 210.976562 75.632812 "/><path style=" stroke:none;fill-rule:nonzero;fill:#1c398e;fill-opacity:1;" d="M 232.609375 85.566406 C 231.574219 86.164062 230.953125 87.589844 230.769531 89.839844 C 230.5625 92.300781 230.90625 94.691406 231.691406 96.300781 C 232.242188 97.429688 232.355469 97.542969 233.070312 97.542969 C 234.703125 97.542969 235.320312 95.773438 235.207031 91.3125 C 235.136719 88.394531 235.09375 88.140625 234.402344 86.667969 C 233.988281 85.816406 233.574219 85.128906 233.484375 85.152344 C 233.390625 85.152344 233 85.335938 232.609375 85.566406 Z M 232.609375 85.566406 "/><path style=" stroke:none;fill-rule:nonzero;fill:#1c398e;fill-opacity:1;" d="M 238.632812 86.4375 C 238.035156 86.601562 237.34375 88.140625 237.046875 90.046875 C 236.746094 92.023438 237.023438 94.738281 237.691406 96.277344 C 237.921875 96.785156 238.082031 97.265625 238.058594 97.359375 C 237.964844 97.75 239.414062 97.519531 239.851562 97.082031 C 240.953125 95.980469 241.460938 91.519531 240.792969 88.851562 C 240.519531 87.75 239.574219 86.230469 239.207031 86.300781 C 239.117188 86.324219 238.863281 86.371094 238.632812 86.4375 Z M 238.632812 86.4375 "/><g style="fill:#1c398e;fill-opacity:1;"><g transform="translate(19.465847, 153.419691)"><path style="stroke:none" d="M 12.085938 -44.253906 L 7.738281 -41.886719 C 14.835938 -40.480469 18.738281 -36.515625 18.738281 -31.976562 C 18.738281 -27.050781 14.644531 -20.144531 6.140625 -12.855469 L 11 -39.648438 L 6.714844 -38.5 L 2.109375 0 L 3.835938 0 L 6.011719 -12.085938 L 8.1875 -12.085938 C 17.777344 -19.632812 22.445312 -27.628906 22.445312 -33.253906 C 22.445312 -37.988281 18.609375 -42.464844 12.085938 -44.253906 Z M 12.085938 -44.253906 "/></g></g><g style="fill:#1c398e;fill-opacity:1;"><g transform="translate(37.05222, 153.419691)"><path style="stroke:none" d="M 20.527344 -43.933594 L 16.242188 -43.933594 L 16.117188 -39.585938 L 12.535156 -39.585938 L 0.191406 0 L 1.984375 0 L 5.882812 -10.808594 L 15.347656 -10.808594 L 15.027344 0 L 16.949219 0 Z M 16.117188 -38.820312 L 15.414062 -13.238281 L 6.777344 -13.238281 Z M 16.117188 -38.820312 "/></g></g><g style="fill:#1c398e;fill-opacity:1;"><g transform="translate(59.818673, 153.419691)"><path style="stroke:none" d="M 12.789062 -44.253906 L 8.441406 -41.953125 C 15.925781 -40.160156 20.082031 -36.070312 20.082031 -31.65625 C 20.082031 -26.921875 15.605469 -20.335938 6.585938 -12.40625 L 13.175781 0 L 17.074219 0 L 9.59375 -12.535156 C 19.1875 -20.847656 23.855469 -28.011719 23.855469 -33.191406 C 23.855469 -37.667969 20.015625 -41.824219 12.789062 -44.253906 Z M 11 -39.648438 L 6.714844 -38.5 L 2.109375 0 L 3.835938 0 Z M 11 -39.648438 "/></g></g><g style="fill:#1c398e;fill-opacity:1;"><g transform="translate(81.370031, 153.419691)"><path style="stroke:none" d="M 20.527344 -43.933594 L 16.242188 -43.933594 L 16.117188 -39.585938 L 12.535156 -39.585938 L 0.191406 0 L 1.984375 0 L 5.882812 -10.808594 L 15.347656 -10.808594 L 15.027344 0 L 16.949219 0 Z M 16.117188 -38.820312 L 15.414062 -13.238281 L 6.777344 -13.238281 Z M 16.117188 -38.820312 "/></g></g><g style="fill:#1c398e;fill-opacity:1;"><g transform="translate(104.136484, 153.419691)"><path style="stroke:none" d="M 10.359375 -44.125 L 6.011719 -42.015625 C 14.132812 -40.546875 18.546875 -36.835938 18.546875 -32.488281 C 18.546875 -28.714844 14.707031 -23.535156 6.90625 -17.074219 L 11 -39.648438 L 6.714844 -38.5 L 2.109375 0 L 3.835938 0 L 6.777344 -16.4375 C 12.34375 -14.453125 15.15625 -12.277344 15.15625 -9.65625 C 15.15625 -6.777344 11.640625 -3.644531 4.539062 0 L 8.25 0 C 14.773438 -3.324219 18.097656 -7.417969 18.097656 -10.488281 C 18.097656 -12.917969 15.667969 -15.605469 10.871094 -17.96875 C 18.675781 -24.683594 22.511719 -29.992188 22.511719 -33.832031 C 22.511719 -38.5 18.289062 -42.335938 10.359375 -44.125 Z M 10.359375 -44.125 "/></g></g><g style="fill:#1c398e;fill-opacity:1;"><g transform="translate(125.495993, 153.419691)"><path style="stroke:none" d="M 12.789062 -44.253906 L 8.441406 -41.953125 C 15.925781 -40.160156 20.082031 -36.070312 20.082031 -31.65625 C 20.082031 -26.921875 15.605469 -20.335938 6.585938 -12.40625 L 13.175781 0 L 17.074219 0 L 9.59375 -12.535156 C 19.1875 -20.847656 23.855469 -28.011719 23.855469 -33.191406 C 23.855469 -37.667969 20.015625 -41.824219 12.789062 -44.253906 Z M 11 -39.648438 L 6.714844 -38.5 L 2.109375 0 L 3.835938 0 Z M 11 -39.648438 "/></g></g><g style="fill:#1c398e;fill-opacity:1;"><g transform="translate(147.558963, 153.419691)"><path style="stroke:none" d="M 11.640625 -42.65625 L 7.355469 -42.65625 L 2.109375 0 L 4.027344 0 Z M 11.640625 -42.65625 "/></g></g><g style="fill:#1c398e;fill-opacity:1;"><g transform="translate(158.110812, 153.419691)"><path style="stroke:none" d="M 20.335938 -44.191406 L 17.457031 -44.191406 L 16.882812 -41.570312 L 12.277344 -41.570312 C 6.777344 -38.308594 3.902344 -33.957031 3.902344 -29.929688 C 3.902344 -26.605469 5.628906 -23.789062 8.378906 -20.207031 C 10.871094 -16.882812 12.789062 -14.707031 12.789062 -12.277344 C 12.789062 -8.824219 8.890625 -4.734375 1.152344 0 L 4.539062 0 C 11.832031 -4.222656 15.667969 -9.59375 15.667969 -13.429688 C 15.667969 -15.730469 14.070312 -17.90625 11.960938 -20.847656 C 9.144531 -24.75 7.226562 -27.371094 7.226562 -29.800781 C 7.226562 -33.128906 10.425781 -37.410156 16.753906 -40.929688 L 14.199219 -28.652344 L 17.777344 -28.652344 Z M 20.335938 -44.191406 "/></g></g><g style="fill:#1c398e;fill-opacity:1;"><g transform="translate(175.697208, 153.419691)"><path style="stroke:none" d="M 20.527344 -43.933594 L 16.242188 -43.933594 L 16.117188 -39.585938 L 12.535156 -39.585938 L 0.191406 0 L 1.984375 0 L 5.882812 -10.808594 L 15.347656 -10.808594 L 15.027344 0 L 16.949219 0 Z M 16.117188 -38.820312 L 15.414062 -13.238281 L 6.777344 -13.238281 Z M 16.117188 -38.820312 "/></g></g><g style="fill:#1c398e;fill-opacity:1;"><g transform="translate(196.417207, 153.419691)"><path style="stroke:none" d="M 20.335938 -44.191406 L 17.457031 -44.191406 L 16.882812 -41.570312 L 12.277344 -41.570312 C 6.777344 -38.308594 3.902344 -33.957031 3.902344 -29.929688 C 3.902344 -26.605469 5.628906 -23.789062 8.378906 -20.207031 C 10.871094 -16.882812 12.789062 -14.707031 12.789062 -12.277344 C 12.789062 -8.824219 8.890625 -4.734375 1.152344 0 L 4.539062 0 C 11.832031 -4.222656 15.667969 -9.59375 15.667969 -13.429688 C 15.667969 -15.730469 14.070312 -17.90625 11.960938 -20.847656 C 9.144531 -24.75 7.226562 -27.371094 7.226562 -29.800781 C 7.226562 -33.128906 10.425781 -37.410156 16.753906 -40.929688 L 14.199219 -28.652344 L 17.777344 -28.652344 Z M 20.335938 -44.191406 "/></g></g><g style="fill:#1c398e;fill-opacity:1;"><g transform="translate(215.026836, 153.419691)"><path style="stroke:none" d=""/></g></g><g style="fill:#1c398e;fill-opacity:1;"><g transform="translate(222.700916, 153.419691)"><path style="stroke:none" d="M 25.582031 -43.679688 L 21.296875 -44.125 L 17.457031 -5.050781 L 11.191406 -42.398438 L 6.332031 -41.953125 L 2.621094 0 L 4.539062 0 L 8.890625 -36.515625 L 16.628906 0 L 18.226562 0 Z M 25.582031 -43.679688 "/></g></g><g style="fill:#1c398e;fill-opacity:1;"><g transform="translate(247.002156, 153.419691)"><path style="stroke:none" d="M 17.84375 -44.253906 L 14.003906 -43.359375 C 14.773438 -42.015625 15.414062 -40.800781 15.988281 -39.648438 L 11.511719 -39.648438 C 5.4375 -33.894531 2.6875 -27.5625 2.6875 -19.378906 C 2.6875 -13.109375 4.605469 -6.777344 8.3125 0 L 12.023438 0 C 19.3125 -8.503906 22.957031 -17.652344 22.957031 -27.179688 C 22.957031 -32.421875 21.296875 -38.371094 17.84375 -44.253906 Z M 10.167969 -0.640625 C 7.226562 -6.332031 5.820312 -11.960938 5.820312 -18.097656 C 5.820312 -26.730469 9.464844 -34.152344 16.179688 -39.265625 C 18.480469 -34.214844 19.632812 -29.546875 19.632812 -25.132812 C 19.632812 -16.117188 16.179688 -7.164062 10.167969 -0.640625 Z M 10.167969 -0.640625 "/></g></g><g style="fill:#1c398e;fill-opacity:1;"><g transform="translate(270.535996, 153.419691)"><path style="stroke:none" d="M 12.789062 -44.253906 L 8.441406 -41.953125 C 15.925781 -40.160156 20.082031 -36.070312 20.082031 -31.65625 C 20.082031 -26.921875 15.605469 -20.335938 6.585938 -12.40625 L 13.175781 0 L 17.074219 0 L 9.59375 -12.535156 C 19.1875 -20.847656 23.855469 -28.011719 23.855469 -33.191406 C 23.855469 -37.667969 20.015625 -41.824219 12.789062 -44.253906 Z M 11 -39.648438 L 6.714844 -38.5 L 2.109375 0 L 3.835938 0 Z M 11 -39.648438 "/></g></g><g style="fill:#1c398e;fill-opacity:1;"><g transform="translate(293.62221, 153.419691)"><path style="stroke:none" d="M 21.742188 -42.59375 L 1.917969 -42.59375 L 0.894531 -39.203125 L 20.976562 -40.097656 Z M 12.980469 -39.136719 L 8.378906 -36.773438 L 3.324219 0 L 5.242188 0 Z M 12.980469 -39.136719 "/></g></g><g style="fill:#1c398e;fill-opacity:1;"><g transform="translate(312.103916, 153.419691)"><path style="stroke:none" d="M 22.128906 -42.65625 L 5.820312 -42.65625 L 4.796875 -39.203125 L 21.359375 -40.097656 Z M 17.90625 -23.34375 L 8.1875 -23.34375 L 11 -39.203125 L 6.652344 -36.773438 L 2.109375 0 L 16.179688 0 L 16.5625 -1.726562 L 4.539062 -2.8125 L 7.738281 -20.71875 L 17.332031 -20.71875 Z M 17.90625 -23.34375 "/></g></g></g></svg>