<?xml version="1.0" standalone="no"?>
<!DOCTYPE svg PUBLIC "-//W3C//DTD SVG 20010904//EN"
 "http://www.w3.org/TR/2001/REC-SVG-20010904/DTD/svg10.dtd">
<svg version="1.0" xmlns="http://www.w3.org/2000/svg"
 width="652.000000pt" height="483.000000pt" viewBox="0 0 652.000000 483.000000"
 preserveAspectRatio="xMidYMid meet">

<g transform="translate(0.000000,483.000000) scale(0.100000,-0.100000)"
fill="#1c398e" stroke="none">
<path d="M2155 4510 c-124 -21 -253 -64 -365 -120 -101 -51 -265 -102 -467
-145 -280 -59 -362 -90 -463 -173 -75 -62 -112 -103 -178 -201 -71 -104 -62
-88 -112 -206 -93 -219 -107 -244 -175 -310 l-64 -64 6 -146 6 -146 51 6 c66
9 152 48 195 88 18 18 54 63 78 100 25 38 54 72 66 77 21 8 743 186 895 221
40 9 74 13 77 9 3 -4 -2 -46 -9 -91 -8 -46 -16 -104 -18 -129 -3 -40 -1 -45
17 -43 100 11 401 25 580 26 l220 2 135 -42 c74 -23 232 -71 350 -107 118 -35
258 -77 310 -93 l95 -29 3 -120 3 -120 -38 -2 c-21 -1 -162 -3 -313 -4 l-275
-3 -65 -39 c-36 -22 -144 -92 -240 -156 -286 -191 -229 -171 -533 -185 -144
-7 -347 -16 -452 -20 -104 -3 -264 -10 -355 -16 -91 -5 -293 -16 -449 -23
l-284 -14 -26 -26 -26 -26 -5 -329 -5 -328 -51 -84 c-28 -46 -57 -101 -64
-123 -27 -82 7 -194 70 -231 35 -20 47 -20 1348 -20 l1312 0 3 310 c3 287 5
316 26 395 56 204 181 361 313 389 71 16 180 5 251 -25 34 -14 72 -28 85 -31
l22 -5 0 884 c0 674 3 887 12 896 16 16 115 16 125 0 4 -7 8 -218 9 -469 1
-251 5 -462 8 -468 4 -6 34 -11 68 -11 l60 0 -6 -32 c-4 -18 -6 -40 -6 -48 1
-8 3 -207 5 -442 3 -462 4 -449 -50 -460 -24 -5 -24 -14 8 -103 46 -128 77
-323 77 -485 0 -169 -42 -472 -71 -506 -8 -10 -2 -15 23 -22 43 -11 211 -6
237 8 37 19 41 70 41 522 0 240 4 439 9 442 5 3 80 -14 167 -38 161 -44 373
-99 674 -176 91 -23 185 -48 210 -55 25 -8 142 -39 260 -69 118 -31 310 -80
425 -110 116 -30 227 -57 248 -61 20 -4 40 -11 43 -16 3 -5 12 -9 21 -9 14 0
14 2 -1 18 -9 11 -18 36 -21 58 -15 126 -89 525 -103 554 -9 20 -150 171 -322
345 -292 296 -684 697 -705 721 -10 12 -252 259 -680 694 -222 226 -243 250
-264 307 -13 34 -30 65 -39 68 -29 11 -186 16 -577 19 -423 2 -479 6 -580 37
-134 41 -217 92 -346 215 -180 170 -218 182 -444 144z m85 -3001 c0 -75 -1
-80 -19 -74 -11 3 -22 1 -25 -4 -4 -5 -40 -10 -81 -10 -41 0 -80 -3 -85 -6 -6
-3 -16 -3 -22 2 -7 4 -22 7 -33 8 -18 0 -20 7 -20 70 0 39 2 76 4 83 2 9 40
12 142 12 l139 0 0 -81z m-1510 -9 l0 -79 -32 -6 c-18 -3 -80 -5 -138 -3
l-105 3 -3 60 c-6 110 -12 105 143 105 l135 0 0 -80z"/>
<path d="M3385 2043 c-71 -37 -129 -112 -175 -227 -37 -95 -48 -140 -61 -267
-13 -126 3 -308 36 -422 13 -45 21 -84 19 -86 -2 -3 -658 -6 -1457 -8 -798 -2
-1457 -5 -1464 -7 -8 -4 -9 -14 -4 -34 23 -80 77 -146 146 -178 47 -22 62 -24
237 -24 l186 0 49 -72 c42 -64 56 -77 117 -108 l69 -35 172 0 173 0 93 47 c52
26 141 75 199 108 l105 60 377 0 377 0 27 -38 c121 -164 172 -182 519 -182
326 0 392 17 501 127 55 56 124 195 153 306 59 226 54 572 -10 752 -44 126
-136 249 -216 289 -41 20 -129 20 -168 -1z m181 -316 c30 -17 71 -69 88 -109
40 -96 45 -318 10 -421 -21 -62 -81 -127 -117 -127 l-27 0 0 335 c0 355 -1
349 46 322z"/>
<path d="M4475 1662 c-58 -12 -117 -98 -144 -207 -10 -40 -31 -211 -31 -250 0
-47 22 -208 39 -284 12 -51 19 -96 17 -99 -5 -4 -375 -21 -494 -22 -51 0 -53
-1 -47 -22 14 -47 84 -134 130 -163 48 -29 50 -30 224 -35 269 -8 337 6 407
82 42 46 63 81 85 146 48 138 63 396 34 561 -32 183 -129 312 -220 293z"/>
<path d="M4804 1543 c36 -71 57 -186 63 -348 3 -88 10 -168 15 -177 8 -17 33
-18 303 -18 292 0 294 0 309 22 11 15 16 45 16 86 0 68 20 129 45 138 17 7
206 -14 420 -46 97 -15 145 -26 157 -38 11 -11 21 -47 27 -102 8 -59 16 -89
28 -98 18 -13 53 -7 65 12 10 15 10 228 0 244 -5 7 -63 24 -131 37 -67 14
-134 31 -149 37 -15 6 -31 10 -36 9 -11 -2 -299 66 -566 134 -282 72 -485 121
-538 130 l-44 7 16 -29z"/>
<path d="M5745 1111 c-45 -26 -72 -88 -80 -186 -9 -107 6 -211 40 -281 24 -49
29 -54 60 -54 71 0 98 77 93 271 -3 127 -5 138 -35 202 -18 37 -36 67 -40 66
-4 0 -21 -8 -38 -18z"/>
<path d="M6007 1073 c-26 -7 -56 -74 -69 -157 -13 -86 -1 -204 28 -271 10 -22
17 -43 16 -47 -4 -17 59 -7 78 12 48 48 70 242 41 358 -12 48 -53 114 -69 111
-4 -1 -15 -3 -25 -6z"/>
</g>
</svg>
